<?xml version="1.0" standalone="no"?>
<!DOCTYPE svg PUBLIC "-//W3C//DTD SVG 20010904//EN"
 "http://www.w3.org/TR/2001/REC-SVG-20010904/DTD/svg10.dtd">
<svg version="1.0" xmlns="http://www.w3.org/2000/svg"
 width="1140.000000pt" height="1140.000000pt" viewBox="0 0 1140.000000 1140.000000"
 preserveAspectRatio="xMidYMid meet">

<g transform="translate(0.000000,1140.000000) scale(0.100000,-0.100000)"
fill="#000000" stroke="none">
<path d="M2 8668 c1 -1503 3 -2713 5 -2688 29 439 71 723 159 1079 508 2063
2112 3667 4175 4175 356 88 640 130 1079 159 25 2 -1185 4 -2687 5 l-2733 2 2
-2732z"/>
<path d="M5980 11393 c439 -29 723 -71 1079 -159 2063 -508 3667 -2112 4175
-4175 88 -356 130 -640 159 -1079 2 -25 4 1185 5 2688 l2 2732 -2732 -2
c-1503 -1 -2713 -3 -2688 -5z"/>
<path d="M5495 11014 c-33 -2 -125 -8 -205 -14 -990 -74 -1965 -442 -2775
-1047 -386 -288 -780 -682 -1068 -1068 -543 -727 -901 -1600 -1016 -2480 -35
-263 -45 -423 -45 -710 0 -287 10 -447 45 -710 115 -880 473 -1753 1016 -2480
288 -386 682 -780 1068 -1068 727 -543 1600 -901 2480 -1016 263 -35 423 -45
710 -45 287 0 447 10 710 45 880 115 1753 473 2480 1016 386 288 780 682 1068
1068 543 727 901 1600 1016 2480 35 263 45 423 45 710 0 154 -6 343 -13 420
-62 702 -235 1326 -535 1933 -268 540 -584 981 -1010 1408 -427 426 -868 742
-1408 1010 -605 299 -1247 477 -1927 534 -134 11 -537 20 -636 14z m581 -318
c599 -127 1043 -526 1180 -1061 25 -98 28 -127 29 -275 0 -91 -6 -221 -13
-288 l-12 -124 40 -91 c50 -115 51 -159 8 -328 -35 -141 -38 -210 -24 -604 l8
-220 -24 -35 c-26 -39 -60 -58 -223 -125 -112 -47 -208 -102 -281 -162 -69
-55 -136 -203 -174 -383 -22 -103 -47 -146 -98 -167 -19 -8 -93 -23 -166 -33
-115 -17 -190 -20 -616 -20 -426 0 -501 3 -616 20 -73 10 -147 25 -166 33 -51
21 -76 64 -98 167 -38 180 -105 328 -174 383 -73 60 -169 115 -281 162 -163
67 -197 86 -223 125 l-24 35 8 220 c14 394 11 463 -24 604 -43 169 -42 213 8
328 l40 91 -12 124 c-7 67 -13 197 -13 288 1 148 4 177 29 275 117 454 451
811 929 989 217 81 379 106 652 102 178 -4 228 -8 331 -30z m-4468 -2590 c79
-36 247 -113 375 -170 128 -57 273 -123 322 -146 50 -23 218 -100 375 -170
157 -71 321 -145 365 -165 74 -35 204 -94 1025 -465 168 -76 339 -153 380
-173 60 -28 359 -163 708 -319 79 -36 35 -31 -105 12 -76 23 -165 50 -198 60
-116 35 -301 91 -380 115 -44 13 -105 31 -135 40 -30 9 -82 25 -115 35 -267
81 -421 128 -545 165 -80 24 -157 48 -172 53 -29 12 -2107 1209 -2123 1224
-12 12 41 -11 223 -96z m8381 80 c-2 -2 -470 -273 -1038 -601 -582 -336 -1059
-605 -1090 -615 -57 -18 -196 -60 -351 -107 -47 -14 -98 -29 -115 -35 -16 -5
-66 -20 -110 -33 -44 -13 -111 -33 -150 -45 -38 -12 -106 -32 -150 -45 -44
-13 -118 -36 -165 -50 -47 -14 -121 -37 -165 -50 -86 -25 -141 -42 -329 -99
-113 -35 -163 -43 -94 -16 35 14 165 73 263 120 33 16 166 76 297 134 282 126
387 173 410 186 9 5 143 66 298 135 155 69 289 130 298 135 27 14 158 73 454
206 153 68 286 128 296 134 21 12 106 50 397 180 127 56 271 122 320 145 50
24 216 99 370 168 154 69 294 132 310 141 27 14 54 22 44 12z m-3267 -2676
c79 -54 163 -114 188 -131 25 -17 158 -109 295 -205 138 -95 270 -187 295
-204 25 -18 158 -110 295 -205 138 -95 270 -188 295 -205 25 -17 158 -109 295
-205 138 -95 270 -187 295 -205 25 -17 135 -93 245 -170 110 -76 220 -153 245
-170 25 -17 133 -92 240 -167 107 -75 233 -162 280 -194 173 -118 267 -185
296 -207 l29 -24 -35 20 c-554 315 -3128 1808 -3139 1821 -9 10 -72 78 -141
152 -69 73 -156 167 -195 208 -38 41 -103 109 -143 151 l-72 75 50 47 50 47
94 -64 c52 -36 159 -110 238 -165z m-1657 178 l45 -43 -73 -75 c-39 -42 -128
-136 -197 -210 -69 -74 -156 -167 -193 -206 -38 -40 -76 -82 -86 -93 -13 -15
-3050 -1777 -3116 -1808 -30 -14 63 54 240 177 233 161 280 193 343 238 40 28
315 218 407 282 17 11 54 37 83 58 77 54 153 107 425 294 26 18 63 44 82 58
19 14 56 40 82 58 27 18 122 84 213 147 91 63 179 123 195 135 17 11 54 37 83
58 77 54 153 107 425 294 26 18 63 44 82 58 19 14 56 40 82 58 111 76 382 264
428 296 28 20 64 45 80 56 17 12 91 63 165 115 74 52 141 94 148 95 7 0 33
-19 57 -42z"/>
<path d="M4434 8263 c-42 -8 -59 -40 -58 -112 0 -84 24 -176 70 -269 44 -91
80 -117 182 -132 39 -5 147 -23 240 -39 289 -50 324 -54 370 -42 52 14 159
102 168 138 12 46 -7 74 -73 110 -62 34 -96 50 -480 219 -213 94 -358 138
-419 127z"/>
<path d="M6890 8254 c-99 -21 -146 -39 -364 -136 -111 -49 -237 -105 -281
-124 -258 -111 -289 -160 -165 -263 34 -29 78 -55 102 -62 46 -12 81 -8 370
42 93 16 201 34 240 39 102 15 138 41 182 132 69 140 94 316 51 356 -29 28
-61 31 -135 16z"/>
<path d="M2 2733 l-2 -2733 2733 2 c1502 1 2712 3 2687 5 -439 29 -723 71
-1079 159 -2063 508 -3667 2112 -4175 4175 -88 356 -130 640 -159 1079 -2 25
-4 -1185 -5 -2687z"/>
<path d="M11390 5397 c0 -158 -49 -552 -101 -812 -432 -2168 -2081 -3890
-4230 -4419 -356 -88 -640 -130 -1079 -159 -25 -2 1185 -4 2688 -5 l2732 -2 0
2730 c0 1502 -2 2730 -5 2730 -3 0 -5 -29 -5 -63z"/>
</g>
</svg>
